<?xml version="1.0" encoding="UTF-8" standalone="no"?>
<!DOCTYPE svg PUBLIC "-//W3C//DTD SVG 1.1//EN" "http://www.w3.org/Graphics/SVG/1.1/DTD/svg11.dtd">
<svg width="100%" height="100%" viewBox="0 0 64 54" version="1.1" xmlns="http://www.w3.org/2000/svg" xmlns:xlink="http://www.w3.org/1999/xlink" xml:space="preserve" xmlns:serif="http://www.serif.com/" style="fill-rule:evenodd;clip-rule:evenodd;stroke-linejoin:round;stroke-miterlimit:2;">
    <g transform="matrix(1,0,0,1,-1501,-50)">
        <rect id="asset_cart" x="1501" y="50" width="64" height="54" style="fill:none;"/>
        <g id="asset_cart1" serif:id="asset_cart">
            <g transform="matrix(1.02017,0,0,0.996683,192.116,30.8158)">
                <path d="M1345.74,30.847C1345.74,24.445 1340.54,19.248 1334.14,19.248L1294.6,19.248C1288.2,19.248 1283,24.445 1283,30.847L1283,61.829C1283,68.23 1288.2,73.428 1294.6,73.428L1334.14,73.428C1340.54,73.428 1345.74,68.23 1345.74,61.829L1345.74,30.847ZM1306.26,32.965C1302.26,32.977 1299.01,36.229 1299.01,40.233C1299.01,40.233 1299.01,56.41 1299.01,56.41C1299.01,60.422 1302.27,63.678 1306.28,63.678C1306.28,63.678 1322.46,63.678 1322.46,63.678C1326.47,63.678 1329.72,60.422 1329.72,56.41L1329.72,40.233C1329.72,36.229 1326.48,32.977 1322.48,32.965C1321.69,28.825 1318.33,25.746 1314.37,25.746C1310.56,25.746 1307.32,28.569 1306.37,32.462C1306.33,32.628 1306.29,32.795 1306.26,32.965ZM1320.23,35.388L1308.51,35.388L1308.51,38.664C1308.51,39.333 1307.96,39.876 1307.3,39.876C1306.63,39.876 1306.08,39.333 1306.08,38.664L1306.08,35.392C1303.5,35.494 1301.43,37.624 1301.43,40.233L1301.43,56.41C1301.43,59.084 1303.61,61.255 1306.28,61.255L1322.46,61.255C1325.13,61.255 1327.3,59.084 1327.3,56.41L1327.3,40.233C1327.3,37.624 1325.24,35.494 1322.65,35.392L1322.65,38.664C1322.65,39.333 1322.11,39.876 1321.44,39.876C1320.77,39.876 1320.23,39.333 1320.23,38.664L1320.23,35.388ZM1320,32.965C1319.29,30.212 1317.06,28.17 1314.37,28.17C1311.68,28.17 1309.44,30.222 1308.74,32.965L1320,32.965Z"/>
            </g>
        </g>
    </g>
</svg>
