<?xml version="1.0" encoding="UTF-8" standalone="no"?>
<!DOCTYPE svg PUBLIC "-//W3C//DTD SVG 1.1//EN" "http://www.w3.org/Graphics/SVG/1.1/DTD/svg11.dtd">
<svg width="100%" height="100%" viewBox="0 0 814 630" version="1.1" xmlns="http://www.w3.org/2000/svg" xmlns:xlink="http://www.w3.org/1999/xlink" xml:space="preserve" xmlns:serif="http://www.serif.com/" style="fill-rule:evenodd;clip-rule:evenodd;stroke-linejoin:round;stroke-miterlimit:2;">
    <g transform="matrix(1,0,0,1,-1546,-183)">
        <rect id="asset_mush" x="1546" y="183" width="814" height="630" style="fill:none;"/>
        <g id="asset_mush1" serif:id="asset_mush">
            <g transform="matrix(-0.367922,-0.0227257,-0.0341997,0.343905,2704.84,298.826)">
                <path d="M1362,768C949.482,750.083 823.382,656.725 1010,481C1057.17,431.167 1123.68,383.484 1219,339C1313.38,268.732 1412.83,222.325 1534,278C1653.53,347.842 1756.96,425.11 1841.72,511C1913.99,601.347 1970.56,688.31 1868,741C1800.1,771.396 1679.59,785.05 1494,778L1362,768Z" style="fill:rgb(221,233,233);"/>
            </g>
            <g transform="matrix(-0.367922,-0.0227257,-0.0341997,0.343905,2704.84,298.826)">
                <path d="M927.152,602.785C929.587,585.594 937.014,566.928 949.461,546.659C962.73,525.053 981.685,501.772 1006.43,476.641C1031.99,447.735 1063.82,418.995 1103.64,391.011C1134.84,369.088 1170.93,347.838 1212.59,326.872C1262.09,289.179 1313.1,257.921 1368.01,244.321C1421.36,231.108 1478.24,234.435 1540.47,263.024L1541.1,263.315C1599.35,298.101 1653.71,333.51 1703.04,372.172C1756.3,413.916 1803.66,459.041 1846.46,505.693L1846.7,505.938C1865.5,531.922 1882.86,557.253 1896.34,581.55C1907.18,601.083 1915.5,619.819 1919.72,637.561C1914.09,620.518 1904.4,602.821 1892.01,584.686C1876.73,562.318 1857.42,539.462 1836.95,516.292C1791.76,473.718 1741.21,434.517 1687,395.97C1637.04,360.439 1584.06,325.379 1526.98,292.723C1471.66,267.442 1421.22,264.886 1373.66,276.028C1321.97,288.141 1273.53,316.158 1226.29,350.46L1225.16,351.297L1223.91,351.881C1181.81,370.095 1145.34,389.14 1113.46,408.694C1073.34,433.306 1040.61,458.649 1013.82,485.114L1013.7,485.24C987.664,507.959 967.527,529.22 953.045,549.303C939.383,568.25 930.785,586.046 927.152,602.785Z" style="fill:rgb(168,246,255);"/>
            </g>
            <g transform="matrix(-0.367922,-0.0227257,-0.0341997,0.343905,2704.84,298.826)">
                <path d="M951,647C1021,779 1825,797 1894,695C1829,573 1128.98,522.507 951,647" style="fill:rgb(250,252,252);"/>
                <clipPath id="_clip1">
                    <path d="M951,647C1021,779 1825,797 1894,695C1829,573 1128.98,522.507 951,647"/>
                </clipPath>
                <g clip-path="url(#_clip1)">
                    <g transform="matrix(1.10531,0,0,1.10531,-150.05,75.367)">
                        <path d="M1452.63,446.343C1438.13,445.652 1423.6,445.139 1409.1,444.803C1412.13,435.83 1415.02,427.95 1417.68,421.572C1419.7,416.704 1421.57,412.76 1423.24,409.951C1424.02,408.641 1424.62,407.639 1425.24,407.173C1428.02,405.071 1428.56,401.111 1426.46,398.336C1424.36,395.562 1420.4,395.016 1417.62,397.119C1416.67,397.852 1415.58,399.092 1414.39,400.806C1412.44,400.086 1410.17,400.345 1408.39,401.694C1407.7,402.224 1406.93,403.021 1406.09,404.074C1403.89,402.047 1400.48,401.821 1398.01,403.692C1395.84,405.366 1392.72,409.511 1389.33,415.937C1388.59,417.329 1387.83,418.84 1387.04,420.462C1385.38,418.128 1382.27,417.153 1379.51,418.285C1376.29,419.636 1371.53,423.595 1366.02,430.031C1362.69,433.917 1358.94,438.755 1354.87,444.358C1349.36,444.396 1343.87,444.459 1338.39,444.547C1337.18,443.837 1335.73,443.522 1334.24,443.75C1333.39,443.887 1332.34,444.196 1331.11,444.679C1325.01,444.803 1318.92,444.957 1312.87,445.143C1313.91,443.862 1314.46,442.173 1314.25,440.4C1313.86,437.148 1311.06,434.768 1307.85,434.842C1307.5,432.035 1305.27,429.718 1302.34,429.369C1300.08,429.119 1296.26,429.766 1291.28,431.858C1284.89,434.543 1275.69,439.634 1264.61,446.438C1264.49,446.416 1264.37,446.398 1264.25,446.384C1263.05,446.252 1261.41,446.387 1259.36,446.797C1258.45,444.924 1256.64,443.538 1254.42,443.274C1253.56,443.179 1252.45,443.217 1251.12,443.391C1250.94,440.403 1248.64,437.876 1245.56,437.51C1242.84,437.21 1237.71,438.03 1230.81,440.303C1226.22,441.817 1220.65,443.947 1214.31,446.589C1213.57,446.147 1212.73,445.849 1211.82,445.741C1207.96,445.316 1198.73,446.734 1186.02,450.008C1178.69,451.894 1170.11,454.358 1160.66,457.294C1087.73,467.292 1027.27,482.892 990.766,503.449C985.494,506.418 983.625,513.108 986.594,518.379C989.563,523.65 996.253,525.52 1001.52,522.551C1009.76,517.914 1019.24,513.548 1029.84,509.459C1012.06,518.629 996.967,527.903 987.048,536.605C985.293,538.118 985.096,540.771 986.609,542.526C988.121,544.281 990.774,544.478 992.529,542.965C1009.45,528.643 1041.46,513.051 1075.93,499.128C1084.6,495.624 1093.43,492.23 1102.22,488.995C1103.38,488.751 1104.55,488.51 1105.72,488.271C1063.06,507.313 1021.5,529.069 1001.82,546.319C1000.06,547.832 999.866,550.485 1001.38,552.24C1002.89,553.995 1005.54,554.192 1007.3,552.679C1027.95,535.184 1072.66,513.307 1117.16,494.7C1118.03,494.337 1118.89,493.976 1119.75,493.618C1080.57,515.345 1042.58,539.009 1023.45,555.786C1021.69,557.298 1021.49,559.951 1023.01,561.706C1024.52,563.462 1027.17,563.659 1028.93,562.146C1049.52,544.701 1091.83,519.817 1133.85,497.861C1148.09,490.42 1162.3,483.319 1175.62,476.967L1175.73,476.954L1176.35,476.876C1171.28,479.631 1166.09,482.496 1160.84,485.444C1112.91,512.336 1059.46,546.122 1035.29,567.312C1033.53,568.824 1033.34,571.477 1034.85,573.232C1036.36,574.988 1039.02,575.184 1040.77,573.672C1061.36,556.23 1103.04,530.192 1144.41,506.956C1154.12,501.503 1163.82,496.205 1173.22,491.211L1172.89,491.412C1126.67,519.712 1075.12,554.894 1051.03,576.016C1049.28,577.528 1049.08,580.181 1050.59,581.936C1052.11,583.691 1054.76,583.888 1056.51,582.376C1080.7,561.889 1132.32,527.991 1178.52,500.78C1189.46,494.335 1200.1,488.266 1209.99,482.846C1157.89,519.422 1097.83,565.404 1072.67,587.418C1070.92,588.931 1070.72,591.584 1072.23,593.339C1073.75,595.094 1076.4,595.291 1078.15,593.778C1102.56,573.068 1159.52,530.752 1210.45,495.885C1214.62,493.033 1218.75,490.232 1222.81,487.493C1214.28,493.843 1205.54,500.498 1196.83,507.29C1156.43,538.782 1116.57,573.225 1099.67,593.835C1098.19,595.614 1098.43,598.264 1100.21,599.748C1101.99,601.231 1104.63,600.991 1106.12,599.212C1121.06,581.589 1153.73,553.746 1188.81,526.625C1157.13,554.666 1126.23,585.732 1111.51,608.193C1110.22,610.118 1110.74,612.728 1112.67,614.016C1114.59,615.304 1117.2,614.787 1118.49,612.861C1133.5,590.869 1164.98,560.609 1196.91,533.483C1223.33,511.039 1250.08,490.765 1268.19,479.148C1268.48,478.96 1268.77,478.773 1269.06,478.589C1251.61,491.118 1228.16,510.304 1205.01,531.269C1173.83,559.493 1143.2,590.93 1128.34,613.616C1127.05,615.542 1127.57,618.152 1129.49,619.44C1131.42,620.728 1134.03,620.21 1135.32,618.284C1150.29,596.343 1180.93,566.185 1211.98,539.123C1230.72,522.791 1249.62,507.598 1265.36,496.044C1255.63,504.87 1245.5,514.352 1235.43,524.089C1200.78,557.575 1166.76,594.048 1151.7,616.973C1150.42,618.899 1150.93,621.508 1152.86,622.797C1154.79,624.085 1157.39,623.567 1158.68,621.641C1173.88,599.337 1208.02,564.072 1242.66,531.705C1255.74,519.488 1268.89,507.689 1281.14,497.157C1276,502.085 1270.71,507.237 1265.36,512.541C1226.34,551.24 1183.84,598.055 1166.19,624.923C1164.9,626.849 1165.42,629.459 1167.35,630.747C1169.28,632.035 1171.88,631.517 1173.17,629.591C1188.37,607.291 1221.59,571.081 1255.27,537.654C1263.17,529.809 1271.1,522.118 1278.84,514.797L1278.57,515.079C1241.57,554.678 1201.27,602.333 1183.69,629.114C1182.4,631.04 1182.92,633.649 1184.84,634.937C1186.77,636.226 1189.38,635.708 1190.67,633.782C1208.51,607.588 1249.22,561.153 1286.49,522.608C1295.32,513.477 1303.95,504.792 1312.04,496.93C1271.59,546.074 1225.96,606.408 1207.59,634.333C1206.3,636.258 1206.82,638.868 1208.74,640.156C1210.67,641.444 1213.28,640.927 1214.56,639.001C1231.03,614.795 1268.91,565.915 1305.69,521.651C1280.45,564.698 1256,610.484 1245.18,634.935C1244.22,637.046 1245.16,639.535 1247.27,640.491C1249.38,641.447 1251.87,640.509 1252.82,638.398C1265.71,610.55 1297.17,554.699 1326.86,507.45C1327.61,506.259 1328.36,505.073 1329.11,503.893C1319.19,521.436 1308.94,540.869 1299.77,560.206C1283.55,594.422 1270.74,628.356 1268.82,651.167C1268.61,653.474 1270.3,655.522 1272.61,655.736C1274.92,655.95 1276.97,654.252 1277.18,651.944C1279.42,629.926 1292.57,597.405 1308.85,564.608C1319.89,542.348 1332.41,519.982 1344.07,500.67C1338.51,512.74 1332.83,525.741 1327.39,539.022C1310.54,580.113 1295.96,623.872 1293.67,651.167C1293.46,653.474 1295.16,655.522 1297.47,655.736C1299.77,655.95 1301.82,654.252 1302.04,651.944C1304.75,625.336 1319.9,582.914 1337.07,543.095C1343.03,529.281 1349.24,515.784 1355.28,503.368C1353.31,509.305 1351.36,515.341 1349.44,521.418C1334.95,567.37 1322.42,615.65 1320.12,642.979C1319.9,645.286 1321.6,647.333 1323.91,647.548C1326.22,647.762 1328.26,646.063 1328.48,643.756C1331.2,616.906 1344.4,569.633 1359.43,524.664C1365.11,507.691 1371.04,491.049 1376.79,475.953C1374.62,482.737 1372.43,489.784 1370.25,496.997C1354.4,549.616 1339.35,611.032 1336.64,643.061C1336.43,645.369 1338.13,647.416 1340.44,647.63C1342.74,647.845 1344.79,646.146 1345.01,643.839C1347.73,616.992 1359.68,569.322 1373.35,523.884C1376.56,513.22 1379.87,502.679 1383.17,492.559L1383.07,492.932C1369.43,545.378 1356.71,606.483 1354.02,638.407C1353.81,640.714 1355.51,642.761 1357.81,642.975C1360.12,643.19 1362.17,641.491 1362.38,639.184C1365.59,607.649 1379.24,547.425 1393.62,495.775C1396.47,485.577 1399.34,475.715 1402.16,466.477C1420.88,466.872 1439.65,467.558 1458.36,468.541C1459.99,475.174 1461.62,482.058 1463.24,489.099C1475.21,541.363 1486.04,602.157 1487.77,633.807C1487.88,636.121 1489.84,637.914 1492.16,637.807C1494.47,637.7 1496.26,635.734 1496.16,633.42C1494.95,601.405 1485.1,539.775 1473.91,486.75L1473.83,486.373C1476.66,496.637 1479.47,507.319 1482.18,518.122C1493.72,564.147 1503.44,612.322 1504.91,639.265C1505.02,641.58 1506.98,643.372 1509.3,643.266C1511.61,643.159 1513.4,641.193 1513.3,638.878C1512.09,606.758 1499.91,544.707 1486.53,491.407C1484.69,484.101 1482.83,476.96 1480.98,470.082C1486.01,485.429 1491.17,502.33 1496.05,519.548C1508.96,565.168 1519.95,613.004 1521.42,639.952C1521.53,642.267 1523.5,644.059 1525.81,643.953C1528.12,643.846 1529.92,641.88 1529.81,639.565C1528.78,612.158 1518.52,563.348 1506.18,516.771C1504.55,510.611 1502.88,504.491 1501.19,498.469C1506.64,511.153 1512.22,524.925 1517.53,539C1532.83,579.576 1545.98,622.657 1547.46,649.363C1547.56,651.678 1549.53,653.47 1551.84,653.363C1554.16,653.257 1555.95,651.291 1555.84,648.976C1554.83,621.604 1542.3,577.213 1527.39,535.383C1522.57,521.862 1517.5,508.611 1512.51,496.296C1523.26,516.13 1534.72,539.054 1544.72,561.804C1559.45,595.324 1571.07,628.421 1572.28,650.52C1572.39,652.835 1574.36,654.627 1576.67,654.521C1578.99,654.414 1580.78,652.448 1580.67,650.133C1579.82,627.258 1568.6,592.763 1553.99,557.83C1545.73,538.086 1536.4,518.197 1527.31,500.211C1528,501.425 1528.69,502.644 1529.38,503.869C1556.84,552.449 1585.66,609.705 1597.24,638.123C1598.1,640.276 1600.54,641.328 1602.7,640.472C1604.85,639.616 1605.9,637.173 1605.05,635.02C1595.37,610.091 1573.08,563.216 1549.87,519.041C1584.56,564.97 1620.12,615.56 1635.43,640.506C1636.63,642.49 1639.21,643.128 1641.2,641.931C1643.18,640.734 1643.82,638.152 1642.62,636.168C1625.57,607.419 1582.8,545.026 1544.68,494.051C1552.39,502.281 1560.61,511.359 1569.01,520.89C1604.44,561.129 1642.94,609.409 1659.55,636.406C1660.75,638.39 1663.33,639.028 1665.31,637.831C1667.3,636.634 1667.94,634.051 1666.74,632.068C1650.42,604.497 1612.38,555.017 1577.27,513.739L1577.02,513.445C1584.4,521.118 1591.96,529.17 1599.49,537.374C1631.58,572.333 1663.08,610.05 1677.22,633.034C1678.42,635.018 1681,635.657 1682.98,634.459C1684.97,633.262 1685.61,630.68 1684.41,628.696C1668.04,601.036 1627.75,552.292 1590.58,511.818C1585.48,506.271 1580.44,500.879 1575.54,495.717C1587.28,506.807 1599.87,519.206 1612.36,532.018C1645.46,565.964 1677.92,602.78 1692.06,625.767C1693.26,627.751 1695.84,628.389 1697.83,627.192C1699.81,625.995 1700.45,623.413 1699.25,621.429C1685.28,597.828 1652.99,559.811 1619.94,524.748C1610.34,514.553 1600.66,504.609 1591.35,495.34C1606.53,507.614 1624.7,523.67 1642.66,540.857C1672.42,569.335 1701.62,600.887 1715.56,623.502C1716.76,625.486 1719.34,626.124 1721.33,624.927C1723.31,623.73 1723.95,621.148 1722.75,619.164C1708.96,595.81 1679.82,562.981 1650,533.336C1629.66,513.121 1609.01,494.393 1592.73,481.149L1593,481.186L1593.33,481.233C1610.66,493.962 1634.5,514.02 1657.98,535.925C1688.62,564.508 1718.65,596.201 1732.62,618.868C1733.82,620.851 1736.4,621.49 1738.39,620.293C1740.37,619.096 1741.01,616.513 1739.81,614.529C1726.15,591.408 1696.73,558.937 1666.39,529.452C1700.18,558.176 1731.51,587.51 1745.62,605.81C1747.02,607.656 1749.65,608.019 1751.5,606.62C1753.34,605.221 1753.71,602.585 1752.31,600.738C1736.38,579.364 1698.17,543.103 1659.29,509.764C1650.9,502.573 1642.48,495.519 1634.25,488.779C1638.18,491.704 1642.17,494.694 1646.2,497.737C1695.46,534.938 1750.38,579.859 1773.8,601.684C1775.48,603.276 1778.14,603.203 1779.74,601.52C1781.33,599.838 1781.26,597.178 1779.57,595.586C1756.89,573.785 1704.29,529.332 1656.21,491.692L1657.08,491.861C1657.56,491.956 1658.04,492.05 1658.52,492.144L1659.56,492.351C1665.51,496.099 1671.64,500.039 1677.88,504.114C1722.76,533.446 1772.74,569.711 1795.95,591.301C1797.63,592.894 1800.29,592.821 1801.88,591.138C1803.48,589.455 1803.4,586.796 1801.72,585.203C1779.59,563.894 1732.83,528.491 1689.48,498.798L1690.83,499.113L1690.85,499.118C1697.71,503.242 1704.68,507.514 1711.66,511.871C1751.9,537.008 1792.33,564.958 1812.08,583.34C1813.76,584.932 1816.42,584.859 1818.02,583.176C1819.61,581.494 1819.54,578.834 1817.85,577.242C1802.12,562.092 1773.14,540.501 1741.55,519.086C1782.33,540.335 1820.41,562.849 1837.79,579.049C1839.47,580.642 1842.13,580.569 1843.73,578.886C1845.32,577.203 1845.25,574.544 1843.56,572.951C1828.98,558.935 1799.81,540.133 1766.58,521.313C1800.61,533.756 1829.23,548.442 1850.37,565.525C1855.07,569.328 1861.98,568.596 1865.78,563.891C1868.01,561.136 1868.68,557.626 1867.91,554.427C1869.21,552.742 1869.05,550.309 1867.47,548.814C1847.59,529.667 1805.23,506.964 1762.83,487.961C1728.9,472.747 1694.97,459.889 1672.75,453.048C1660.21,449.185 1651.05,447.339 1647.17,447.584C1643.7,447.833 1641.09,450.855 1641.34,454.327C1641.47,456.13 1642.34,457.702 1643.64,458.762C1637.29,455.353 1631.52,452.416 1626.5,450.059C1616.08,445.169 1608.32,442.908 1604.73,443.136C1602.77,443.277 1601.08,444.303 1600.03,445.797C1599.55,445.881 1599.1,446.018 1598.67,446.201C1597.09,445.859 1595.78,445.721 1594.77,445.785C1594.65,445.794 1594.53,445.806 1594.41,445.822C1583.66,438.51 1574.71,432.996 1568.45,430.017C1563.57,427.694 1559.78,426.87 1557.52,427.016C1554.57,427.227 1552.24,429.437 1551.76,432.225C1548.55,432.002 1545.64,434.249 1545.1,437.48C1544.53,440.914 1546.85,444.167 1550.29,444.74C1553.97,445.323 1561.09,449.468 1570.69,455.702C1570.89,455.834 1571.09,455.968 1571.3,456.1L1571.18,456.145C1571.13,456.164 1571.08,456.183 1571.04,456.202L1570.97,456.232C1562.74,455.225 1554.45,454.283 1546.11,453.407C1543.2,451.007 1540.52,448.905 1538.13,447.14C1532.28,442.831 1527.66,440.457 1524.98,439.895C1521.94,439.285 1518.97,440.971 1517.87,443.755C1516.66,443.173 1515.61,442.792 1514.76,442.614C1512.58,442.174 1510.42,442.928 1508.98,444.426C1508.19,443.984 1507.47,443.613 1506.8,443.315C1502.05,435.917 1497.68,429.601 1493.87,424.711C1488.66,418.025 1484.1,413.849 1480.95,412.35C1478.24,411.09 1475.09,411.92 1473.32,414.174C1472.61,412.517 1471.92,410.972 1471.25,409.548C1468.16,402.971 1465.23,398.685 1463.14,396.911C1460.76,394.927 1457.35,394.994 1455.06,396.917C1454.26,395.826 1453.53,394.993 1452.87,394.432C1451.15,393.002 1448.9,392.638 1446.92,393.266C1445.81,391.498 1444.78,390.209 1443.86,389.432C1441.19,387.203 1437.2,387.563 1434.98,390.237C1432.75,392.911 1433.11,396.892 1435.78,399.121C1436.38,399.615 1436.93,400.644 1437.65,401.989C1439.19,404.873 1440.87,408.899 1442.67,413.857C1445.76,422.388 1449.14,433.53 1452.63,446.343ZM1645.74,459.895C1648.24,461.252 1650.83,462.678 1653.48,464.168C1659.48,466.83 1665.81,469.722 1672.4,472.805C1695.95,477.751 1718.4,483.355 1739.43,489.622C1714.72,479.67 1691.26,471.351 1673.8,466.071C1661.01,462.207 1651.75,459.87 1648.08,460.167C1647.26,460.225 1646.47,460.126 1645.74,459.895Z" style="fill:rgb(0,56,102);"/>
                    </g>
                </g>
            </g>
            <g transform="matrix(-0.367922,-0.0227257,-0.0341997,0.343905,2704.84,298.826)">
                <path d="M1894,695C1874.19,660.717 1801.88,634.842 1704.95,617.25C1662.87,609.613 1616.22,603.606 1567.16,599.023C1533.32,595.862 1498.37,593.504 1463.03,591.582C1428.36,589.696 1393.34,588.344 1358.62,587.622C1304.69,586.5 1251.56,586.888 1201.64,589.893C1143.75,593.378 1090.33,599.767 1045.33,610.528C1034.19,613.166 1023.6,616.053 1013.56,619.183C1002.44,622.65 992.036,626.393 982.416,630.489L954.156,644.602L981.564,628.27C991.007,623.415 1001.25,618.829 1012.26,614.516C1022.22,610.617 1032.77,606.97 1043.87,603.511C1088.79,589.618 1142.44,578.968 1200.88,572.122C1251.24,566.223 1305.06,562.8 1359.65,562.414C1394.81,562.165 1430.28,563.195 1465.31,565.465C1501.01,567.778 1536.24,571.485 1570.26,576.117C1619.6,582.835 1666.36,591.667 1708.32,602.107C1805.21,626.215 1876.25,658.757 1894,695Z" style="fill:rgb(10,86,148);"/>
            </g>
            <g transform="matrix(-0.405168,-0.011562,-0.0280221,0.383073,3485.15,337.83)">
                <path d="M2861,1091C2837.45,1080.83 3051.95,1052.69 3195,1074L3528,1090L3655,1105C3683.44,1109.37 3691.45,1114.76 3662,1122C3621.52,1131.79 3562.72,1137.73 3496,1142C3424.08,1151.95 3346.73,1153.76 3261,1143C3088.58,1138.23 2954.51,1121.13 2861,1091Z" style="fill:rgb(0,39,71);"/>
            </g>
            <g transform="matrix(-0.367922,-0.0227257,-0.0341997,0.343905,2704.84,298.826)">
                <path d="M1368,587C1367.55,670.2 1363.3,750.744 1358.4,825.813C1358.17,829.337 1355.51,832.215 1352.2,832.499C1351.49,832.56 1350.78,832.621 1350.11,832.679C1347.95,832.865 1346.17,834.671 1345.88,836.967C1345.49,840.048 1344.94,844.417 1344.46,848.192C1343.81,853.319 1344.35,858.489 1346.03,863.248C1346.03,863.25 1346.03,863.252 1346.03,863.254C1351.12,877.667 1348.42,894.176 1338.99,906.46C1335,911.653 1332.32,917.174 1331.3,922.999C1328.87,936.826 1324.57,950.274 1318.52,962.914C1315.18,969.785 1314.75,977.273 1318.59,985.762C1319.71,988.277 1320.53,990.942 1321.03,993.697C1321.08,993.685 1321.08,993.686 1321.08,993.688C1323.64,1007.75 1322.5,1022.44 1317.81,1036.15C1306.08,1070.96 1308.61,1144 1308.61,1144C1308.61,1144 1308.79,1145.16 1309.06,1146.97C1310.35,1155.49 1308.19,1164.34 1303.1,1171.33C1302.07,1172.7 1302.1,1174.57 1303.43,1177.03C1305.86,1181.63 1307.13,1186.85 1307.13,1192.22C1307.16,1193.29 1307.16,1194 1307.16,1194C1309.6,1202.49 1312.45,1208.27 1315.97,1209.74C1316.59,1209.85 1317.12,1210.25 1317.41,1210.83C1317.71,1211.41 1317.74,1212.11 1317.49,1212.74C1314.48,1221.03 1305.21,1244.77 1302.66,1251.31C1301.41,1254.5 1300.92,1257.95 1301.23,1261.33C1301.66,1266.42 1303.91,1270.26 1307.97,1272.87C1308.97,1273.51 1309.92,1274.23 1310.82,1275.01C1324.48,1286.53 1334.82,1299.79 1335,1318L1339,1317L1341,1325L1394,1330L1399,1309C1399.85,1307.33 1400.84,1307.28 1402,1309C1402.27,1337.37 1426,1337 1436,1314L1440,1331C1450.72,1329.82 1459.51,1326.61 1466,1321L1467,1309C1467.85,1307.26 1469.19,1307.28 1471,1309L1473,1321L1479,1324L1486,1324C1491.27,1310.57 1496.12,1296.92 1495,1280L1515,1237L1516,1227L1522,1206C1522,1206 1534.02,977.479 1521,967C1518.5,947.598 1520.33,886.794 1512,877C1513.06,872.844 1510.55,869.258 1506,866C1506.8,864.744 1505.29,862.223 1506,861C1516.96,842.247 1519.74,828.837 1500,822L1470,590L1368,587" style="fill:rgb(221,233,233);"/>
                <clipPath id="_clip2">
                    <path d="M1368,587C1367.55,670.2 1363.3,750.744 1358.4,825.813C1358.17,829.337 1355.51,832.215 1352.2,832.499C1351.49,832.56 1350.78,832.621 1350.11,832.679C1347.95,832.865 1346.17,834.671 1345.88,836.967C1345.49,840.048 1344.94,844.417 1344.46,848.192C1343.81,853.319 1344.35,858.489 1346.03,863.248C1346.03,863.25 1346.03,863.252 1346.03,863.254C1351.12,877.667 1348.42,894.176 1338.99,906.46C1335,911.653 1332.32,917.174 1331.3,922.999C1328.87,936.826 1324.57,950.274 1318.52,962.914C1315.18,969.785 1314.75,977.273 1318.59,985.762C1319.71,988.277 1320.53,990.942 1321.03,993.697C1321.08,993.685 1321.08,993.686 1321.08,993.688C1323.64,1007.75 1322.5,1022.44 1317.81,1036.15C1306.08,1070.96 1308.61,1144 1308.61,1144C1308.61,1144 1308.79,1145.16 1309.06,1146.97C1310.35,1155.49 1308.19,1164.34 1303.1,1171.33C1302.07,1172.7 1302.1,1174.57 1303.43,1177.03C1305.86,1181.63 1307.13,1186.85 1307.13,1192.22C1307.16,1193.29 1307.16,1194 1307.16,1194C1309.6,1202.49 1312.45,1208.27 1315.97,1209.74C1316.59,1209.85 1317.12,1210.25 1317.41,1210.83C1317.71,1211.41 1317.74,1212.11 1317.49,1212.74C1314.48,1221.03 1305.21,1244.77 1302.66,1251.31C1301.41,1254.5 1300.92,1257.95 1301.23,1261.33C1301.66,1266.42 1303.91,1270.26 1307.97,1272.87C1308.97,1273.51 1309.92,1274.23 1310.82,1275.01C1324.48,1286.53 1334.82,1299.79 1335,1318L1339,1317L1341,1325L1394,1330L1399,1309C1399.85,1307.33 1400.84,1307.28 1402,1309C1402.27,1337.37 1426,1337 1436,1314L1440,1331C1450.72,1329.82 1459.51,1326.61 1466,1321L1467,1309C1467.85,1307.26 1469.19,1307.28 1471,1309L1473,1321L1479,1324L1486,1324C1491.27,1310.57 1496.12,1296.92 1495,1280L1515,1237L1516,1227L1522,1206C1522,1206 1534.02,977.479 1521,967C1518.5,947.598 1520.33,886.794 1512,877C1513.06,872.844 1510.55,869.258 1506,866C1506.8,864.744 1505.29,862.223 1506,861C1516.96,842.247 1519.74,828.837 1500,822L1470,590L1368,587"/>
                </clipPath>
                <g clip-path="url(#_clip2)">
                    <g transform="matrix(1,0.137128,0,1,-3.82792,-165.183)">
                        <rect x="1336" y="547" width="177" height="135" style="fill:rgb(0,56,102);"/>
                    </g>
                </g>
            </g>
            <g transform="matrix(0.54899,-0.151433,0.151659,0.54981,960.768,299.411)">
                <path d="M1362,768C949.482,750.083 823.382,656.725 1010,481C1057.17,431.167 1123.68,383.484 1219,339C1313.38,268.732 1412.83,222.325 1534,278C1653.53,347.842 1756.96,425.11 1841.72,511C1913.99,601.347 1970.56,688.31 1868,741C1800.1,771.396 1679.59,785.05 1494,778L1362,768Z" style="fill:rgb(238,245,245);"/>
            </g>
            <g transform="matrix(0.54899,-0.151433,0.151659,0.54981,960.768,299.411)">
                <path d="M927.152,602.785C930.573,586.089 938.908,568.24 952.233,549.196C966.555,528.725 986.632,506.917 1012.55,483.697L1012.62,483.624C1039.2,456.747 1071.62,430.859 1111.38,405.741C1143.41,385.514 1180.18,365.784 1222.66,346.831L1223.47,346.457L1224.17,345.929C1271.18,311.45 1319.4,283.036 1370.86,270.316C1419.99,258.174 1472.17,260.53 1529.47,286.739C1586.88,319.858 1640.3,355.098 1690.32,391.407C1744.09,430.436 1793.9,470.777 1838.51,514.003C1858.82,537.887 1877.97,561.495 1893.02,584.429C1905.01,602.704 1914.37,620.505 1919.72,637.561C1915.3,620.122 1906.85,601.738 1895.87,582.676C1882.03,558.641 1864.19,533.607 1845.15,508.263L1845,508.084C1801.76,462.277 1753.96,418.46 1700.75,377.504C1651.11,339.294 1596.78,303.751 1538.97,269.514L1538.56,269.27C1475.96,240.501 1419.25,237.661 1366.05,251.203C1312.62,264.807 1262.83,295.103 1214.44,331.607C1172.28,352.211 1135.78,373.258 1104.24,394.933C1064.77,422.06 1033.07,450.013 1007.31,478.448C982.34,503.166 963.179,526.177 949.751,547.554C937.281,567.405 929.76,585.794 927.152,602.785Z" style="fill:rgb(168,246,255);"/>
            </g>
            <g transform="matrix(0.54899,-0.151433,0.151659,0.54981,960.768,299.411)">
                <path d="M951,647C1021,779 1825,797 1894,695C1829,573 1128.98,522.507 951,647" style="fill:rgb(250,252,252);"/>
                <clipPath id="_clip3">
                    <path d="M951,647C1021,779 1825,797 1894,695C1829,573 1128.98,522.507 951,647"/>
                </clipPath>
                <g clip-path="url(#_clip3)">
                    <g transform="matrix(1.10531,0,0,1.10531,-150.05,75.367)">
                        <path d="M1452.63,446.343C1438.13,445.652 1423.6,445.139 1409.1,444.803C1412.13,435.83 1415.02,427.95 1417.68,421.572C1419.7,416.704 1421.57,412.76 1423.24,409.951C1424.02,408.641 1424.62,407.639 1425.24,407.173C1428.02,405.071 1428.56,401.111 1426.46,398.336C1424.36,395.562 1420.4,395.016 1417.62,397.119C1416.67,397.852 1415.58,399.092 1414.39,400.806C1412.44,400.086 1410.17,400.345 1408.39,401.694C1407.7,402.224 1406.93,403.021 1406.09,404.074C1403.89,402.047 1400.48,401.821 1398.01,403.692C1395.84,405.366 1392.72,409.511 1389.33,415.937C1388.59,417.329 1387.83,418.84 1387.04,420.462C1385.38,418.128 1382.27,417.153 1379.51,418.285C1376.29,419.636 1371.53,423.595 1366.02,430.031C1362.69,433.917 1358.94,438.755 1354.87,444.358C1349.36,444.396 1343.87,444.459 1338.39,444.547C1337.18,443.837 1335.73,443.522 1334.24,443.75C1333.39,443.887 1332.34,444.196 1331.11,444.679C1325.01,444.803 1318.92,444.957 1312.87,445.143C1313.91,443.862 1314.46,442.173 1314.25,440.4C1313.86,437.148 1311.06,434.768 1307.85,434.842C1307.5,432.035 1305.27,429.718 1302.34,429.369C1300.08,429.119 1296.26,429.766 1291.28,431.858C1284.89,434.543 1275.69,439.634 1264.61,446.438C1264.49,446.416 1264.37,446.398 1264.25,446.384C1263.05,446.252 1261.41,446.387 1259.36,446.797C1258.45,444.924 1256.64,443.538 1254.42,443.274C1253.56,443.179 1252.45,443.217 1251.12,443.391C1250.94,440.403 1248.64,437.876 1245.56,437.51C1242.84,437.21 1237.71,438.03 1230.81,440.303C1226.22,441.817 1220.65,443.947 1214.31,446.589C1213.57,446.147 1212.73,445.849 1211.82,445.741C1207.96,445.316 1198.73,446.734 1186.02,450.008C1178.69,451.894 1170.11,454.358 1160.66,457.294C1087.73,467.292 1027.27,482.892 990.766,503.449C985.494,506.418 983.625,513.108 986.594,518.379C989.563,523.65 996.253,525.52 1001.52,522.551C1009.76,517.914 1019.24,513.548 1029.84,509.459C1012.06,518.629 996.967,527.903 987.048,536.605C985.293,538.118 985.096,540.771 986.609,542.526C988.121,544.281 990.774,544.478 992.529,542.965C1009.45,528.643 1041.46,513.051 1075.93,499.128C1084.6,495.624 1093.43,492.23 1102.22,488.995C1103.38,488.751 1104.55,488.51 1105.72,488.271C1063.06,507.313 1021.5,529.069 1001.82,546.319C1000.06,547.832 999.866,550.485 1001.38,552.24C1002.89,553.995 1005.54,554.192 1007.3,552.679C1027.95,535.184 1072.66,513.307 1117.16,494.7C1118.03,494.337 1118.89,493.976 1119.75,493.618C1080.57,515.345 1042.58,539.009 1023.45,555.786C1021.69,557.298 1021.49,559.951 1023.01,561.706C1024.52,563.462 1027.17,563.659 1028.93,562.146C1049.52,544.701 1091.83,519.817 1133.85,497.861C1148.09,490.42 1162.3,483.319 1175.62,476.967L1175.73,476.954L1176.35,476.876C1171.28,479.631 1166.09,482.496 1160.84,485.444C1112.91,512.336 1059.46,546.122 1035.29,567.312C1033.53,568.824 1033.34,571.477 1034.85,573.232C1036.36,574.988 1039.02,575.184 1040.77,573.672C1061.36,556.23 1103.04,530.192 1144.41,506.956C1154.12,501.503 1163.82,496.205 1173.22,491.211L1172.89,491.412C1126.67,519.712 1075.12,554.894 1051.03,576.016C1049.28,577.528 1049.08,580.181 1050.59,581.936C1052.11,583.691 1054.76,583.888 1056.51,582.376C1080.7,561.889 1132.32,527.991 1178.52,500.78C1189.46,494.335 1200.1,488.266 1209.99,482.846C1157.89,519.422 1097.83,565.404 1072.67,587.418C1070.92,588.931 1070.72,591.584 1072.23,593.339C1073.75,595.094 1076.4,595.291 1078.15,593.778C1102.56,573.068 1159.52,530.752 1210.45,495.885C1214.62,493.033 1218.75,490.232 1222.81,487.493C1214.28,493.843 1205.54,500.498 1196.83,507.29C1156.43,538.782 1116.57,573.225 1099.67,593.835C1098.19,595.614 1098.43,598.264 1100.21,599.748C1101.99,601.231 1104.63,600.991 1106.12,599.212C1121.06,581.589 1153.73,553.746 1188.81,526.625C1157.13,554.666 1126.23,585.732 1111.51,608.193C1110.22,610.118 1110.74,612.728 1112.67,614.016C1114.59,615.304 1117.2,614.787 1118.49,612.861C1133.5,590.869 1164.98,560.609 1196.91,533.483C1223.33,511.039 1250.08,490.765 1268.19,479.148C1268.48,478.96 1268.77,478.773 1269.06,478.589C1251.61,491.118 1228.16,510.304 1205.01,531.269C1173.83,559.493 1143.2,590.93 1128.34,613.616C1127.05,615.542 1127.57,618.152 1129.49,619.44C1131.42,620.728 1134.03,620.21 1135.32,618.284C1150.29,596.343 1180.93,566.185 1211.98,539.123C1230.72,522.791 1249.62,507.598 1265.36,496.044C1255.63,504.87 1245.5,514.352 1235.43,524.089C1200.78,557.575 1166.76,594.048 1151.7,616.973C1150.42,618.899 1150.93,621.508 1152.86,622.797C1154.79,624.085 1157.39,623.567 1158.68,621.641C1173.88,599.337 1208.02,564.072 1242.66,531.705C1255.74,519.488 1268.89,507.689 1281.14,497.157C1276,502.085 1270.71,507.237 1265.36,512.541C1226.34,551.24 1183.84,598.055 1166.19,624.923C1164.9,626.849 1165.42,629.459 1167.35,630.747C1169.28,632.035 1171.88,631.517 1173.17,629.591C1188.37,607.291 1221.59,571.081 1255.27,537.654C1263.17,529.809 1271.1,522.118 1278.84,514.797L1278.57,515.079C1241.57,554.678 1201.27,602.333 1183.69,629.114C1182.4,631.04 1182.92,633.649 1184.84,634.937C1186.77,636.226 1189.38,635.708 1190.67,633.782C1208.51,607.588 1249.22,561.153 1286.49,522.608C1295.32,513.477 1303.95,504.792 1312.04,496.93C1271.59,546.074 1225.96,606.408 1207.59,634.333C1206.3,636.258 1206.82,638.868 1208.74,640.156C1210.67,641.444 1213.28,640.927 1214.56,639.001C1231.03,614.795 1268.91,565.915 1305.69,521.651C1280.45,564.698 1256,610.484 1245.18,634.935C1244.22,637.046 1245.16,639.535 1247.27,640.491C1249.38,641.447 1251.87,640.509 1252.82,638.398C1265.71,610.55 1297.17,554.699 1326.86,507.45C1327.61,506.259 1328.36,505.073 1329.11,503.893C1319.19,521.436 1308.94,540.869 1299.77,560.206C1283.55,594.422 1270.74,628.356 1268.82,651.167C1268.61,653.474 1270.3,655.522 1272.61,655.736C1274.92,655.95 1276.97,654.252 1277.18,651.944C1279.42,629.926 1292.57,597.405 1308.85,564.608C1319.89,542.348 1332.41,519.982 1344.07,500.67C1338.51,512.74 1332.83,525.741 1327.39,539.022C1310.54,580.113 1295.96,623.872 1293.67,651.167C1293.46,653.474 1295.16,655.522 1297.47,655.736C1299.77,655.95 1301.82,654.252 1302.04,651.944C1304.75,625.336 1319.9,582.914 1337.07,543.095C1343.03,529.281 1349.24,515.784 1355.28,503.368C1353.31,509.305 1351.36,515.341 1349.44,521.418C1334.95,567.37 1322.42,615.65 1320.12,642.979C1319.9,645.286 1321.6,647.333 1323.91,647.548C1326.22,647.762 1328.26,646.063 1328.48,643.756C1331.2,616.906 1344.4,569.633 1359.43,524.664C1365.11,507.691 1371.04,491.049 1376.79,475.953C1374.62,482.737 1372.43,489.784 1370.25,496.997C1354.4,549.616 1339.35,611.032 1336.64,643.061C1336.43,645.369 1338.13,647.416 1340.44,647.63C1342.74,647.845 1344.79,646.146 1345.01,643.839C1347.73,616.992 1359.68,569.322 1373.35,523.884C1376.56,513.22 1379.87,502.679 1383.17,492.559L1383.07,492.932C1369.43,545.378 1356.71,606.483 1354.02,638.407C1353.81,640.714 1355.51,642.761 1357.81,642.975C1360.12,643.19 1362.17,641.491 1362.38,639.184C1365.59,607.649 1379.24,547.425 1393.62,495.775C1396.47,485.577 1399.34,475.715 1402.16,466.477C1420.88,466.872 1439.65,467.558 1458.36,468.541C1459.99,475.174 1461.62,482.058 1463.24,489.099C1475.21,541.363 1486.04,602.157 1487.77,633.807C1487.88,636.121 1489.84,637.914 1492.16,637.807C1494.47,637.7 1496.26,635.734 1496.16,633.42C1494.95,601.405 1485.1,539.775 1473.91,486.75L1473.83,486.373C1476.66,496.637 1479.47,507.319 1482.18,518.122C1493.72,564.147 1503.44,612.322 1504.91,639.265C1505.02,641.58 1506.98,643.372 1509.3,643.266C1511.61,643.159 1513.4,641.193 1513.3,638.878C1512.09,606.758 1499.91,544.707 1486.53,491.407C1484.69,484.101 1482.83,476.96 1480.98,470.082C1486.01,485.429 1491.17,502.33 1496.05,519.548C1508.96,565.168 1519.95,613.004 1521.42,639.952C1521.53,642.267 1523.5,644.059 1525.81,643.953C1528.12,643.846 1529.92,641.88 1529.81,639.565C1528.78,612.158 1518.52,563.348 1506.18,516.771C1504.55,510.611 1502.88,504.491 1501.19,498.469C1506.64,511.153 1512.22,524.925 1517.53,539C1532.83,579.576 1545.98,622.657 1547.46,649.363C1547.56,651.678 1549.53,653.47 1551.84,653.363C1554.16,653.257 1555.95,651.291 1555.84,648.976C1554.83,621.604 1542.3,577.213 1527.39,535.383C1522.57,521.862 1517.5,508.611 1512.51,496.296C1523.26,516.13 1534.72,539.054 1544.72,561.804C1559.45,595.324 1571.07,628.421 1572.28,650.52C1572.39,652.835 1574.36,654.627 1576.67,654.521C1578.99,654.414 1580.78,652.448 1580.67,650.133C1579.82,627.258 1568.6,592.763 1553.99,557.83C1545.73,538.086 1536.4,518.197 1527.31,500.211C1528,501.425 1528.69,502.644 1529.38,503.869C1556.84,552.449 1585.66,609.705 1597.24,638.123C1598.1,640.276 1600.54,641.328 1602.7,640.472C1604.85,639.616 1605.9,637.173 1605.05,635.02C1595.37,610.091 1573.08,563.216 1549.87,519.041C1584.56,564.97 1620.12,615.56 1635.43,640.506C1636.63,642.49 1639.21,643.128 1641.2,641.931C1643.18,640.734 1643.82,638.152 1642.62,636.168C1625.57,607.419 1582.8,545.026 1544.68,494.051C1552.39,502.281 1560.61,511.359 1569.01,520.89C1604.44,561.129 1642.94,609.409 1659.55,636.406C1660.75,638.39 1663.33,639.028 1665.31,637.831C1667.3,636.634 1667.94,634.051 1666.74,632.068C1650.42,604.497 1612.38,555.017 1577.27,513.739L1577.02,513.445C1584.4,521.118 1591.96,529.17 1599.49,537.374C1631.58,572.333 1663.08,610.05 1677.22,633.034C1678.42,635.018 1681,635.657 1682.98,634.459C1684.97,633.262 1685.61,630.68 1684.41,628.696C1668.04,601.036 1627.75,552.292 1590.58,511.818C1585.48,506.271 1580.44,500.879 1575.54,495.717C1587.28,506.807 1599.87,519.206 1612.36,532.018C1645.46,565.964 1677.92,602.78 1692.06,625.767C1693.26,627.751 1695.84,628.389 1697.83,627.192C1699.81,625.995 1700.45,623.413 1699.25,621.429C1685.28,597.828 1652.99,559.811 1619.94,524.748C1610.34,514.553 1600.66,504.609 1591.35,495.34C1606.53,507.614 1624.7,523.67 1642.66,540.857C1672.42,569.335 1701.62,600.887 1715.56,623.502C1716.76,625.486 1719.34,626.124 1721.33,624.927C1723.31,623.73 1723.95,621.148 1722.75,619.164C1708.96,595.81 1679.82,562.981 1650,533.336C1629.66,513.121 1609.01,494.393 1592.73,481.149L1593,481.186L1593.33,481.233C1610.66,493.962 1634.5,514.02 1657.98,535.925C1688.62,564.508 1718.65,596.201 1732.62,618.868C1733.82,620.851 1736.4,621.49 1738.39,620.293C1740.37,619.096 1741.01,616.513 1739.81,614.529C1726.15,591.408 1696.73,558.937 1666.39,529.452C1700.18,558.176 1731.51,587.51 1745.62,605.81C1747.02,607.656 1749.65,608.019 1751.5,606.62C1753.34,605.221 1753.71,602.585 1752.31,600.738C1736.38,579.364 1698.17,543.103 1659.29,509.764C1650.9,502.573 1642.48,495.519 1634.25,488.779C1638.18,491.704 1642.17,494.694 1646.2,497.737C1695.46,534.938 1750.38,579.859 1773.8,601.684C1775.48,603.276 1778.14,603.203 1779.74,601.52C1781.33,599.838 1781.26,597.178 1779.57,595.586C1756.89,573.785 1704.29,529.332 1656.21,491.692L1657.08,491.861C1657.56,491.956 1658.04,492.05 1658.52,492.144L1659.56,492.351C1665.51,496.099 1671.64,500.039 1677.88,504.114C1722.76,533.446 1772.74,569.711 1795.95,591.301C1797.63,592.894 1800.29,592.821 1801.88,591.138C1803.48,589.455 1803.4,586.796 1801.72,585.203C1779.59,563.894 1732.83,528.491 1689.48,498.798L1690.83,499.113L1690.85,499.118C1697.71,503.242 1704.68,507.514 1711.66,511.871C1751.9,537.008 1792.33,564.958 1812.08,583.34C1813.76,584.932 1816.42,584.859 1818.02,583.176C1819.61,581.494 1819.54,578.834 1817.85,577.242C1802.12,562.092 1773.14,540.501 1741.55,519.086C1782.33,540.335 1820.41,562.849 1837.79,579.049C1839.47,580.642 1842.13,580.569 1843.73,578.886C1845.32,577.203 1845.25,574.544 1843.56,572.951C1828.98,558.935 1799.81,540.133 1766.58,521.313C1800.61,533.756 1829.23,548.442 1850.37,565.525C1855.07,569.328 1861.98,568.596 1865.78,563.891C1868.01,561.136 1868.68,557.626 1867.91,554.427C1869.21,552.742 1869.05,550.309 1867.47,548.814C1847.59,529.667 1805.23,506.964 1762.83,487.961C1728.9,472.747 1694.97,459.889 1672.75,453.048C1660.21,449.185 1651.05,447.339 1647.17,447.584C1643.7,447.833 1641.09,450.855 1641.34,454.327C1641.47,456.13 1642.34,457.702 1643.64,458.762C1637.29,455.353 1631.52,452.416 1626.5,450.059C1616.08,445.169 1608.32,442.908 1604.73,443.136C1602.77,443.277 1601.08,444.303 1600.03,445.797C1599.55,445.881 1599.1,446.018 1598.67,446.201C1597.09,445.859 1595.78,445.721 1594.77,445.785C1594.65,445.794 1594.53,445.806 1594.41,445.822C1583.66,438.51 1574.71,432.996 1568.45,430.017C1563.57,427.694 1559.78,426.87 1557.52,427.016C1554.57,427.227 1552.24,429.437 1551.76,432.225C1548.55,432.002 1545.64,434.249 1545.1,437.48C1544.53,440.914 1546.85,444.167 1550.29,444.74C1553.97,445.323 1561.09,449.468 1570.69,455.702C1570.89,455.834 1571.09,455.968 1571.3,456.1L1571.18,456.145C1571.13,456.164 1571.08,456.183 1571.04,456.202L1570.97,456.232C1562.74,455.225 1554.45,454.283 1546.11,453.407C1543.2,451.007 1540.52,448.905 1538.13,447.14C1532.28,442.831 1527.66,440.457 1524.98,439.895C1521.94,439.285 1518.97,440.971 1517.87,443.755C1516.66,443.173 1515.61,442.792 1514.76,442.614C1512.58,442.174 1510.42,442.928 1508.98,444.426C1508.19,443.984 1507.47,443.613 1506.8,443.315C1502.05,435.917 1497.68,429.601 1493.87,424.711C1488.66,418.025 1484.1,413.849 1480.95,412.35C1478.24,411.09 1475.09,411.92 1473.32,414.174C1472.61,412.517 1471.92,410.972 1471.25,409.548C1468.16,402.971 1465.23,398.685 1463.14,396.911C1460.76,394.927 1457.35,394.994 1455.06,396.917C1454.26,395.826 1453.53,394.993 1452.87,394.432C1451.15,393.002 1448.9,392.638 1446.92,393.266C1445.81,391.498 1444.78,390.209 1443.86,389.432C1441.19,387.203 1437.2,387.563 1434.98,390.237C1432.75,392.911 1433.11,396.892 1435.78,399.121C1436.38,399.615 1436.93,400.644 1437.65,401.989C1439.19,404.873 1440.87,408.899 1442.67,413.857C1445.76,422.388 1449.14,433.53 1452.63,446.343ZM1645.74,459.895C1648.24,461.252 1650.83,462.678 1653.48,464.168C1659.48,466.83 1665.81,469.722 1672.4,472.805C1695.95,477.751 1718.4,483.355 1739.43,489.622C1714.72,479.67 1691.26,471.351 1673.8,466.071C1661.01,462.207 1651.75,459.87 1648.08,460.167C1647.26,460.225 1646.47,460.126 1645.74,459.895Z" style="fill:rgb(0,56,102);"/>
                    </g>
                </g>
            </g>
            <g transform="matrix(0.54899,-0.151433,0.151659,0.54981,960.768,299.411)">
                <path d="M1894,695C1875.91,659.152 1804.51,627.893 1707.51,605.094C1665.33,595.178 1618.32,586.869 1568.78,580.568C1534.65,576.228 1499.33,572.789 1463.58,570.56C1428.54,568.376 1393.08,567.29 1357.95,567.363C1303.51,567.476 1249.87,570.34 1199.68,575.698C1141.81,581.876 1088.61,591.67 1044.01,604.864C1032.88,608.171 1022.3,611.688 1012.32,615.449C1001.34,619.585 991.1,624.002 981.668,628.695L954.156,644.602L982.312,630.063C991.885,625.836 1002.25,621.934 1013.33,618.314C1023.38,615.026 1034.02,611.979 1045.19,609.175C1089.92,597.887 1143.08,590.669 1200.65,586.512C1250.6,582.904 1303.85,581.873 1357.86,582.656C1392.71,583.162 1427.86,584.42 1462.64,586.361C1498.13,588.342 1533.23,590.961 1567.19,594.406C1616.48,599.407 1663.35,605.999 1705.55,614.217C1802.4,633.079 1874.53,660.327 1894,695Z" style="fill:rgb(10,86,148);"/>
            </g>
            <g transform="matrix(0.629467,0,0,0.630406,-197.391,61.7389)">
                <path d="M2861,1091C2837.45,1080.83 3051.95,1052.69 3195,1074L3528,1090L3655,1105C3683.44,1109.37 3691.45,1114.76 3662,1122C3621.52,1131.79 3562.72,1137.73 3496,1142C3424.08,1151.95 3346.73,1153.76 3261,1143C3088.58,1138.23 2954.51,1121.13 2861,1091Z" style="fill:rgb(0,39,71);"/>
            </g>
            <g transform="matrix(0.54899,-0.151433,0.132502,0.480359,972.014,340.179)">
                <path d="M1368,587C1367.55,670.041 1363.31,750.437 1358.43,825.383C1358.18,829.187 1355.54,832.212 1352.21,832.498C1351.52,832.558 1350.82,832.618 1350.16,832.675C1347.95,832.865 1346.15,834.783 1345.84,837.29C1345.44,840.397 1344.9,844.68 1344.44,848.365C1343.81,853.366 1344.35,858.468 1346,863.155C1346,863.156 1346,863.157 1346,863.158C1351.12,877.671 1348.58,894.247 1339.44,905.904C1334.89,911.636 1331.95,917.788 1331.1,924.313C1329.37,937.437 1325.35,950.03 1319.29,961.346C1315.2,968.799 1314.43,976.94 1318.83,986.294C1319.78,988.309 1320.46,990.468 1320.87,992.706C1320.9,992.697 1320.9,992.697 1320.9,992.697C1323.55,1007.29 1322.46,1022.44 1317.75,1036.34C1306.09,1071.2 1308.61,1144 1308.61,1144C1308.61,1144 1308.73,1144.8 1308.93,1146.1C1310.29,1155.09 1308.16,1164.3 1303.09,1171.35C1302.07,1172.71 1302.1,1174.58 1303.43,1177.04C1305.85,1181.61 1307.13,1186.85 1307.13,1192.19C1307.16,1193.28 1307.16,1194 1307.16,1194C1307.66,1195.73 1308.17,1197.35 1308.7,1198.84C1313.14,1210.94 1313,1224.6 1308.33,1236.58C1305.78,1243.3 1303.45,1249.29 1302.48,1251.78C1301.51,1254.25 1301.04,1256.94 1301.09,1259.65C1301.21,1265.33 1303.29,1269.6 1307.4,1272.49C1313.07,1276.44 1318.25,1281.25 1322.8,1286.77C1330.1,1295.6 1334.88,1305.66 1335,1318L1339,1317L1341,1325L1394,1330L1399,1309C1399.85,1307.33 1400.84,1307.28 1402,1309C1402.27,1337.37 1426,1337 1436,1314L1440,1331C1450.72,1329.82 1459.51,1326.61 1466,1321L1467,1309C1467.85,1307.26 1469.19,1307.28 1471,1309L1473,1321L1479,1324L1486,1324C1491.27,1310.57 1496.12,1296.92 1495,1280L1515,1237L1516,1227L1522,1206C1522,1206 1534.02,977.479 1521,967C1518.5,947.598 1520.33,886.794 1512,877C1513.06,872.844 1510.55,869.258 1506,866C1506.8,864.744 1505.29,862.223 1506,861C1516.96,842.247 1519.74,828.837 1500,822L1470,590L1368,587" style="fill:rgb(239,248,252);"/>
                <clipPath id="_clip4">
                    <path d="M1368,587C1367.55,670.041 1363.31,750.437 1358.43,825.383C1358.18,829.187 1355.54,832.212 1352.21,832.498C1351.52,832.558 1350.82,832.618 1350.16,832.675C1347.95,832.865 1346.15,834.783 1345.84,837.29C1345.44,840.397 1344.9,844.68 1344.44,848.365C1343.81,853.366 1344.35,858.468 1346,863.155C1346,863.156 1346,863.157 1346,863.158C1351.12,877.671 1348.58,894.247 1339.44,905.904C1334.89,911.636 1331.95,917.788 1331.1,924.313C1329.37,937.437 1325.35,950.03 1319.29,961.346C1315.2,968.799 1314.43,976.94 1318.83,986.294C1319.78,988.309 1320.46,990.468 1320.87,992.706C1320.9,992.697 1320.9,992.697 1320.9,992.697C1323.55,1007.29 1322.46,1022.44 1317.75,1036.34C1306.09,1071.2 1308.61,1144 1308.61,1144C1308.61,1144 1308.73,1144.8 1308.93,1146.1C1310.29,1155.09 1308.16,1164.3 1303.09,1171.35C1302.07,1172.71 1302.1,1174.58 1303.43,1177.04C1305.85,1181.61 1307.13,1186.85 1307.13,1192.19C1307.16,1193.28 1307.16,1194 1307.16,1194C1307.66,1195.73 1308.17,1197.35 1308.7,1198.84C1313.14,1210.94 1313,1224.6 1308.33,1236.58C1305.78,1243.3 1303.45,1249.29 1302.48,1251.78C1301.51,1254.25 1301.04,1256.94 1301.09,1259.65C1301.21,1265.33 1303.29,1269.6 1307.4,1272.49C1313.07,1276.44 1318.25,1281.25 1322.8,1286.77C1330.1,1295.6 1334.88,1305.66 1335,1318L1339,1317L1341,1325L1394,1330L1399,1309C1399.85,1307.33 1400.84,1307.28 1402,1309C1402.27,1337.37 1426,1337 1436,1314L1440,1331C1450.72,1329.82 1459.51,1326.61 1466,1321L1467,1309C1467.85,1307.26 1469.19,1307.28 1471,1309L1473,1321L1479,1324L1486,1324C1491.27,1310.57 1496.12,1296.92 1495,1280L1515,1237L1516,1227L1522,1206C1522,1206 1534.02,977.479 1521,967C1518.5,947.598 1520.33,886.794 1512,877C1513.06,872.844 1510.55,869.258 1506,866C1506.8,864.744 1505.29,862.223 1506,861C1516.96,842.247 1519.74,828.837 1500,822L1470,590L1368,587"/>
                </clipPath>
                <g clip-path="url(#_clip4)">
                    <g transform="matrix(1,0.137128,0,1,-3.82792,-165.183)">
                        <rect x="1336" y="547" width="177" height="135" style="fill:rgb(0,56,102);"/>
                    </g>
                </g>
            </g>
        </g>
    </g>
</svg>
