<?xml version="1.0" encoding="UTF-8" standalone="no"?>
<!DOCTYPE svg PUBLIC "-//W3C//DTD SVG 1.1//EN" "http://www.w3.org/Graphics/SVG/1.1/DTD/svg11.dtd">
<svg width="100%" height="100%" viewBox="0 0 200 58" version="1.1" xmlns="http://www.w3.org/2000/svg" xmlns:xlink="http://www.w3.org/1999/xlink" xml:space="preserve" xmlns:serif="http://www.serif.com/" style="fill-rule:evenodd;clip-rule:evenodd;stroke-linejoin:round;stroke-miterlimit:2;">
    <g transform="matrix(1,0,0,1,-1655,-730)">
        <g id="explore_button" transform="matrix(1.00157,0,0,1,-3.60638,-5.14078e-12)">
            <rect x="1656" y="730" width="199.686" height="58" style="fill:none;"/>
            <clipPath id="_clip1">
                <rect x="1656" y="730" width="199.686" height="58"/>
            </clipPath>
            <g clip-path="url(#_clip1)">
                <g transform="matrix(0.828571,0,0,0.828571,2381.83,0.857143)">
                    <path d="M-635,884.746C-635,882.127 -637.123,880 -639.738,880L-871.262,880C-873.877,880 -876,882.127 -876,884.746L-876,945.254C-876,947.873 -873.877,950 -871.262,950L-639.738,950C-637.123,950 -635,947.873 -635,945.254L-635,884.746Z" style="fill:white;"/>
                </g>
                <g transform="matrix(0.857113,0,0,0.83879,1480.61,209.932)">
                    <g transform="matrix(28.5344,0,0,28.5344,258.526,664.947)">
                        <path d="M0.227,-0.608L0.227,-0.422L0.469,-0.422L0.469,-0.308L0.227,-0.308L0.227,-0.117L0.538,-0.117L0.538,-0L0.076,-0L0.076,-0.726L0.538,-0.726L0.538,-0.608L0.227,-0.608Z" style="fill:rgb(0,39,71);fill-rule:nonzero;"/>
                    </g>
                    <g transform="matrix(28.5344,0,0,28.5344,274.904,664.947)">
                        <path d="M0.681,-0L0.531,-0C0.521,-0 0.512,-0.003 0.506,-0.008C0.5,-0.013 0.495,-0.018 0.492,-0.025L0.335,-0.292C0.333,-0.288 0.331,-0.285 0.33,-0.281C0.328,-0.278 0.327,-0.275 0.325,-0.272L0.175,-0.025C0.171,-0.019 0.166,-0.013 0.16,-0.008C0.154,-0.003 0.147,-0 0.138,-0L-0.002,-0L0.235,-0.374L0.007,-0.726L0.157,-0.726C0.167,-0.726 0.174,-0.724 0.179,-0.722C0.184,-0.719 0.188,-0.715 0.192,-0.709L0.347,-0.452C0.349,-0.456 0.351,-0.46 0.353,-0.464C0.355,-0.468 0.357,-0.473 0.36,-0.477L0.5,-0.706C0.504,-0.713 0.508,-0.718 0.513,-0.721C0.518,-0.724 0.524,-0.726 0.531,-0.726L0.675,-0.726L0.444,-0.38L0.681,-0Z" style="fill:rgb(0,39,71);fill-rule:nonzero;"/>
                    </g>
                    <g transform="matrix(28.5344,0,0,28.5344,294.294,664.947)">
                        <path d="M0.321,-0.365C0.368,-0.365 0.402,-0.376 0.424,-0.399C0.446,-0.421 0.457,-0.452 0.457,-0.492C0.457,-0.509 0.454,-0.526 0.449,-0.541C0.443,-0.556 0.435,-0.568 0.424,-0.579C0.413,-0.589 0.399,-0.597 0.382,-0.603C0.365,-0.609 0.344,-0.612 0.321,-0.612L0.226,-0.612L0.226,-0.365L0.321,-0.365ZM0.321,-0.726C0.371,-0.726 0.414,-0.72 0.45,-0.708C0.486,-0.696 0.516,-0.68 0.539,-0.659C0.562,-0.638 0.58,-0.614 0.591,-0.585C0.602,-0.556 0.608,-0.525 0.608,-0.492C0.608,-0.456 0.602,-0.423 0.59,-0.394C0.578,-0.364 0.561,-0.338 0.537,-0.317C0.513,-0.296 0.484,-0.279 0.448,-0.267C0.411,-0.255 0.369,-0.25 0.321,-0.25L0.226,-0.25L0.226,-0L0.076,-0L0.076,-0.726L0.321,-0.726Z" style="fill:rgb(0,39,71);fill-rule:nonzero;"/>
                    </g>
                    <g transform="matrix(28.5344,0,0,28.5344,312.185,664.947)">
                        <path d="M0.506,-0.122L0.506,-0L0.076,-0L0.076,-0.726L0.226,-0.726L0.226,-0.122L0.506,-0.122Z" style="fill:rgb(0,39,71);fill-rule:nonzero;"/>
                    </g>
                    <g transform="matrix(28.5344,0,0,28.5344,326.466,664.947)">
                        <path d="M0.777,-0.363C0.777,-0.31 0.768,-0.261 0.75,-0.216C0.732,-0.17 0.707,-0.131 0.675,-0.098C0.642,-0.065 0.603,-0.039 0.558,-0.02C0.512,-0.001 0.461,0.008 0.406,0.008C0.35,0.008 0.299,-0.001 0.254,-0.02C0.208,-0.039 0.169,-0.065 0.136,-0.098C0.103,-0.131 0.078,-0.17 0.06,-0.216C0.042,-0.261 0.034,-0.31 0.034,-0.363C0.034,-0.416 0.042,-0.465 0.06,-0.51C0.078,-0.555 0.103,-0.595 0.136,-0.627C0.169,-0.661 0.208,-0.686 0.254,-0.705C0.299,-0.724 0.35,-0.734 0.406,-0.734C0.461,-0.734 0.512,-0.724 0.558,-0.705C0.603,-0.686 0.642,-0.66 0.675,-0.627C0.707,-0.594 0.732,-0.555 0.75,-0.51C0.768,-0.465 0.777,-0.416 0.777,-0.363ZM0.624,-0.363C0.624,-0.401 0.619,-0.435 0.609,-0.465C0.599,-0.495 0.584,-0.521 0.565,-0.542C0.546,-0.563 0.524,-0.58 0.497,-0.591C0.47,-0.602 0.44,-0.608 0.406,-0.608C0.372,-0.608 0.341,-0.602 0.314,-0.591C0.287,-0.58 0.264,-0.563 0.245,-0.542C0.226,-0.521 0.212,-0.495 0.202,-0.465C0.192,-0.435 0.187,-0.401 0.187,-0.363C0.187,-0.325 0.192,-0.29 0.202,-0.26C0.212,-0.23 0.226,-0.204 0.245,-0.184C0.264,-0.163 0.287,-0.146 0.314,-0.135C0.341,-0.124 0.372,-0.118 0.406,-0.118C0.44,-0.118 0.47,-0.124 0.497,-0.135C0.524,-0.146 0.546,-0.163 0.565,-0.184C0.584,-0.204 0.599,-0.23 0.609,-0.26C0.619,-0.29 0.624,-0.325 0.624,-0.363Z" style="fill:rgb(0,39,71);fill-rule:nonzero;"/>
                    </g>
                    <g transform="matrix(28.5344,0,0,28.5344,349.608,664.947)">
                        <path d="M0.303,-0.382C0.327,-0.382 0.348,-0.385 0.366,-0.391C0.384,-0.397 0.398,-0.406 0.409,-0.417C0.421,-0.428 0.429,-0.44 0.435,-0.455C0.44,-0.47 0.443,-0.486 0.443,-0.503C0.443,-0.537 0.431,-0.564 0.408,-0.583C0.385,-0.602 0.351,-0.612 0.304,-0.612L0.226,-0.612L0.226,-0.382L0.303,-0.382ZM0.655,-0L0.519,-0C0.494,-0 0.475,-0.01 0.464,-0.029L0.326,-0.252C0.32,-0.26 0.314,-0.267 0.307,-0.271C0.3,-0.275 0.29,-0.277 0.277,-0.277L0.226,-0.277L0.226,-0L0.076,-0L0.076,-0.726L0.304,-0.726C0.355,-0.726 0.398,-0.72 0.434,-0.71C0.47,-0.699 0.5,-0.685 0.523,-0.666C0.546,-0.647 0.562,-0.625 0.573,-0.599C0.584,-0.573 0.589,-0.545 0.589,-0.514C0.589,-0.49 0.586,-0.467 0.579,-0.446C0.572,-0.424 0.562,-0.405 0.549,-0.387C0.536,-0.369 0.52,-0.354 0.501,-0.34C0.482,-0.326 0.46,-0.315 0.436,-0.307C0.446,-0.302 0.455,-0.295 0.463,-0.288C0.471,-0.28 0.479,-0.271 0.486,-0.261L0.655,-0Z" style="fill:rgb(0,39,71);fill-rule:nonzero;"/>
                    </g>
                    <g transform="matrix(28.5344,0,0,28.5344,368.141,664.947)">
                        <path d="M0.227,-0.608L0.227,-0.422L0.469,-0.422L0.469,-0.308L0.227,-0.308L0.227,-0.117L0.538,-0.117L0.538,-0L0.076,-0L0.076,-0.726L0.538,-0.726L0.538,-0.608L0.227,-0.608Z" style="fill:rgb(0,39,71);fill-rule:nonzero;"/>
                    </g>
                </g>
            </g>
        </g>
    </g>
</svg>
