<?xml version="1.0" encoding="UTF-8" standalone="no"?>
<!DOCTYPE svg PUBLIC "-//W3C//DTD SVG 1.1//EN" "http://www.w3.org/Graphics/SVG/1.1/DTD/svg11.dtd">
<svg width="100%" height="100%" viewBox="0 0 213 38" version="1.1" xmlns="http://www.w3.org/2000/svg" xmlns:xlink="http://www.w3.org/1999/xlink" xml:space="preserve" xmlns:serif="http://www.serif.com/" style="fill-rule:evenodd;clip-rule:evenodd;stroke-linejoin:round;stroke-miterlimit:2;">
    <g id="Artboard1" transform="matrix(1.00073,0,0,1.00354,0,0)">
        <rect x="0" y="0" width="212.845" height="37.866" style="fill:none;"/>
        <clipPath id="_clip1">
            <rect x="0" y="0" width="212.845" height="37.866"/>
        </clipPath>
        <g clip-path="url(#_clip1)">
            <g transform="matrix(0.169492,0,0,0.165145,-25.443,-135.335)">
                <g transform="matrix(198.239,0,0,198.239,139,964)">
                    <path d="M0.056,-0.093C0.12,-0.008 0.226,0.029 0.329,0.029C0.449,0.029 0.583,-0.035 0.583,-0.171C0.583,-0.416 0.194,-0.4 0.194,-0.52C0.194,-0.589 0.252,-0.611 0.312,-0.611C0.377,-0.611 0.437,-0.584 0.483,-0.538L0.562,-0.626C0.497,-0.69 0.407,-0.729 0.316,-0.729C0.19,-0.729 0.076,-0.661 0.076,-0.524C0.076,-0.295 0.465,-0.309 0.465,-0.175C0.465,-0.109 0.386,-0.089 0.333,-0.089C0.264,-0.089 0.192,-0.107 0.149,-0.166L0.056,-0.093Z" style="fill:rgb(0,39,71);fill-rule:nonzero;"/>
                </g>
                <g transform="matrix(198.239,0,0,198.239,265.674,964)">
                    <path d="M0.196,-0L0.196,-0.247L0.307,-0.247C0.465,-0.247 0.544,-0.36 0.544,-0.473C0.544,-0.587 0.465,-0.7 0.307,-0.7L0.076,-0.7L0.076,-0L0.196,-0ZM0.307,-0.587C0.458,-0.587 0.459,-0.36 0.307,-0.36L0.196,-0.36L0.196,-0.587L0.307,-0.587Z" style="fill:rgb(0,39,71);fill-rule:nonzero;"/>
                </g>
                <g transform="matrix(198.239,0,0,198.239,372.171,964)">
                    <path d="M0.421,0.016C0.601,0.016 0.781,-0.106 0.781,-0.35C0.781,-0.594 0.601,-0.716 0.421,-0.716C0.24,-0.716 0.06,-0.594 0.06,-0.35C0.06,-0.106 0.24,0.016 0.421,0.016ZM0.421,-0.595C0.542,-0.595 0.664,-0.514 0.664,-0.35C0.664,-0.186 0.542,-0.105 0.421,-0.105C0.299,-0.105 0.178,-0.186 0.178,-0.35C0.178,-0.514 0.299,-0.595 0.421,-0.595Z" style="fill:rgb(0,39,71);fill-rule:nonzero;"/>
                </g>
                <g transform="matrix(198.239,0,0,198.239,538.89,964)">
                    <path d="M0.196,-0L0.196,-0.279L0.272,-0.279L0.461,-0L0.604,-0L0.401,-0.297C0.608,-0.378 0.573,-0.7 0.297,-0.7L0.076,-0.7L0.076,-0L0.196,-0ZM0.297,-0.587C0.448,-0.587 0.449,-0.392 0.297,-0.392L0.196,-0.392L0.196,-0.587L0.297,-0.587Z" style="fill:rgb(0,39,71);fill-rule:nonzero;"/>
                </g>
                <g transform="matrix(198.239,0,0,198.239,665.762,964)">
                    <path d="M0.076,-0.7L0.076,-0L0.529,-0L0.529,-0.112L0.196,-0.112L0.196,-0.294L0.457,-0.294L0.457,-0.406L0.196,-0.406L0.196,-0.588L0.529,-0.588L0.529,-0.7L0.076,-0.7Z" style="fill:rgb(0,39,71);fill-rule:nonzero;"/>
                </g>
                <g transform="matrix(198.239,0,0,198.239,829.706,964)">
                    <path d="M0.076,-0.7L0.076,-0L0.196,-0L0.196,-0.442L0.607,-0L0.647,-0L0.647,-0.7L0.527,-0.7L0.527,-0.259L0.117,-0.7L0.076,-0.7Z" style="fill:rgb(0,39,71);fill-rule:nonzero;"/>
                </g>
                <g transform="matrix(198.239,0,0,198.239,973.032,964)">
                    <rect x="0.076" y="-0.7" width="0.12" height="0.7" style="fill:rgb(0,39,71);fill-rule:nonzero;"/>
                </g>
                <g transform="matrix(198.239,0,0,198.239,1026.95,964)">
                    <path d="M0.076,-0.7L0.076,-0L0.196,-0L0.196,-0.442L0.607,-0L0.647,-0L0.647,-0.7L0.527,-0.7L0.527,-0.259L0.117,-0.7L0.076,-0.7Z" style="fill:rgb(0,39,71);fill-rule:nonzero;"/>
                </g>
                <g transform="matrix(198.239,0,0,198.239,1170.28,964)">
                    <path d="M0.036,-0.044C0.075,-0.004 0.145,0.014 0.187,0.014C0.305,0.014 0.41,-0.053 0.41,-0.251L0.41,-0.7L0.29,-0.7L0.29,-0.255C0.29,-0.158 0.238,-0.104 0.174,-0.104C0.139,-0.104 0.1,-0.121 0.065,-0.155L0.036,-0.044Z" style="fill:rgb(0,39,71);fill-rule:nonzero;"/>
                </g>
                <g transform="matrix(198.239,0,0,198.239,1264.84,964)">
                    <path d="M0.161,-0L0.206,-0.098L0.538,-0.098L0.583,-0L0.707,-0L0.382,-0.71L0.362,-0.71L0.036,-0L0.161,-0ZM0.257,-0.21L0.372,-0.458L0.486,-0.21L0.257,-0.21Z" style="fill:rgb(0,39,71);fill-rule:nonzero;"/>
                </g>
            </g>
            <g transform="matrix(0.0548639,0,0,0.0534568,-8.45335,-14.1063)">
                <g transform="matrix(198.239,0,0,198.239,139,964)">
                    <path d="M0.196,-0L0.196,-0.247L0.307,-0.247C0.465,-0.247 0.544,-0.36 0.544,-0.473C0.544,-0.587 0.465,-0.7 0.307,-0.7L0.076,-0.7L0.076,-0L0.196,-0ZM0.307,-0.587C0.458,-0.587 0.459,-0.36 0.307,-0.36L0.196,-0.36L0.196,-0.587L0.307,-0.587Z" style="fill:rgb(0,39,71);fill-rule:nonzero;"/>
                </g>
                <g transform="matrix(198.239,0,0,198.239,257.943,964)">
                    <path d="M0.196,-0L0.196,-0.279L0.272,-0.279L0.461,-0L0.604,-0L0.401,-0.297C0.608,-0.378 0.573,-0.7 0.297,-0.7L0.076,-0.7L0.076,-0L0.196,-0ZM0.297,-0.587C0.448,-0.587 0.449,-0.392 0.297,-0.392L0.196,-0.392L0.196,-0.587L0.297,-0.587Z" style="fill:rgb(0,39,71);fill-rule:nonzero;"/>
                </g>
                <g transform="matrix(198.239,0,0,198.239,384.816,964)">
                    <path d="M0.076,-0.7L0.076,-0L0.529,-0L0.529,-0.112L0.196,-0.112L0.196,-0.294L0.457,-0.294L0.457,-0.406L0.196,-0.406L0.196,-0.588L0.529,-0.588L0.529,-0.7L0.076,-0.7Z" style="fill:rgb(0,39,71);fill-rule:nonzero;"/>
                </g>
                <g transform="matrix(198.239,0,0,198.239,500.785,964)">
                    <path d="M0.066,-0L0.184,-0L0.245,-0.4L0.456,-0L0.496,-0L0.706,-0.4L0.768,-0L0.886,-0L0.781,-0.7L0.741,-0.7L0.476,-0.197L0.211,-0.7L0.171,-0.7L0.066,-0Z" style="fill:rgb(0,39,71);fill-rule:nonzero;"/>
                </g>
                <g transform="matrix(198.239,0,0,198.239,689.509,964)">
                    <rect x="0.076" y="-0.7" width="0.12" height="0.7" style="fill:rgb(0,39,71);fill-rule:nonzero;"/>
                </g>
                <g transform="matrix(198.239,0,0,198.239,743.429,964)">
                    <path d="M0.066,-0.266C0.066,-0.073 0.208,0.024 0.349,0.024C0.491,0.024 0.632,-0.073 0.632,-0.266L0.632,-0.7L0.512,-0.7L0.512,-0.266C0.512,-0.157 0.431,-0.103 0.349,-0.103C0.268,-0.103 0.186,-0.157 0.186,-0.266L0.186,-0.7L0.066,-0.7L0.066,-0.266Z" style="fill:rgb(0,39,71);fill-rule:nonzero;"/>
                </g>
                <g transform="matrix(198.239,0,0,198.239,881.8,964)">
                    <path d="M0.066,-0L0.184,-0L0.245,-0.4L0.456,-0L0.496,-0L0.706,-0.4L0.768,-0L0.886,-0L0.781,-0.7L0.741,-0.7L0.476,-0.197L0.211,-0.7L0.171,-0.7L0.066,-0Z" style="fill:rgb(0,39,71);fill-rule:nonzero;"/>
                </g>
                <g transform="matrix(198.239,0,0,198.239,1118.5,964)">
                    <path d="M0.066,-0L0.184,-0L0.245,-0.4L0.456,-0L0.496,-0L0.706,-0.4L0.768,-0L0.886,-0L0.781,-0.7L0.741,-0.7L0.476,-0.197L0.211,-0.7L0.171,-0.7L0.066,-0Z" style="fill:rgb(0,39,71);fill-rule:nonzero;"/>
                </g>
                <g transform="matrix(198.239,0,0,198.239,1307.22,964)">
                    <path d="M0.066,-0.266C0.066,-0.073 0.208,0.024 0.349,0.024C0.491,0.024 0.632,-0.073 0.632,-0.266L0.632,-0.7L0.512,-0.7L0.512,-0.266C0.512,-0.157 0.431,-0.103 0.349,-0.103C0.268,-0.103 0.186,-0.157 0.186,-0.266L0.186,-0.7L0.066,-0.7L0.066,-0.266Z" style="fill:rgb(0,39,71);fill-rule:nonzero;"/>
                </g>
                <g transform="matrix(198.239,0,0,198.239,1445.59,964)">
                    <path d="M0.056,-0.093C0.12,-0.008 0.226,0.029 0.329,0.029C0.449,0.029 0.583,-0.035 0.583,-0.171C0.583,-0.416 0.194,-0.4 0.194,-0.52C0.194,-0.589 0.252,-0.611 0.312,-0.611C0.377,-0.611 0.437,-0.584 0.483,-0.538L0.562,-0.626C0.497,-0.69 0.407,-0.729 0.316,-0.729C0.19,-0.729 0.076,-0.661 0.076,-0.524C0.076,-0.295 0.465,-0.309 0.465,-0.175C0.465,-0.109 0.386,-0.089 0.333,-0.089C0.264,-0.089 0.192,-0.107 0.149,-0.166L0.056,-0.093Z" style="fill:rgb(0,39,71);fill-rule:nonzero;"/>
                </g>
                <g transform="matrix(198.239,0,0,198.239,1572.26,964)">
                    <path d="M0.076,-0.7L0.076,-0L0.196,-0L0.196,-0.294L0.53,-0.294L0.53,-0L0.65,-0L0.65,-0.7L0.53,-0.7L0.53,-0.406L0.196,-0.406L0.196,-0.7L0.076,-0.7Z" style="fill:rgb(0,39,71);fill-rule:nonzero;"/>
                </g>
                <g transform="matrix(198.239,0,0,198.239,1716.19,964)">
                    <path d="M0.196,-0L0.196,-0.279L0.272,-0.279L0.461,-0L0.604,-0L0.401,-0.297C0.608,-0.378 0.573,-0.7 0.297,-0.7L0.076,-0.7L0.076,-0L0.196,-0ZM0.297,-0.587C0.448,-0.587 0.449,-0.392 0.297,-0.392L0.196,-0.392L0.196,-0.587L0.297,-0.587Z" style="fill:rgb(0,39,71);fill-rule:nonzero;"/>
                </g>
                <g transform="matrix(198.239,0,0,198.239,1825.11,964)">
                    <path d="M0.421,0.016C0.601,0.016 0.781,-0.106 0.781,-0.35C0.781,-0.594 0.601,-0.716 0.421,-0.716C0.24,-0.716 0.06,-0.594 0.06,-0.35C0.06,-0.106 0.24,0.016 0.421,0.016ZM0.421,-0.595C0.542,-0.595 0.664,-0.514 0.664,-0.35C0.664,-0.186 0.542,-0.105 0.421,-0.105C0.299,-0.105 0.178,-0.186 0.178,-0.35C0.178,-0.514 0.299,-0.595 0.421,-0.595Z" style="fill:rgb(0,39,71);fill-rule:nonzero;"/>
                </g>
                <g transform="matrix(198.239,0,0,198.239,1986.56,964)">
                    <path d="M0.421,0.016C0.601,0.016 0.781,-0.106 0.781,-0.35C0.781,-0.594 0.601,-0.716 0.421,-0.716C0.24,-0.716 0.06,-0.594 0.06,-0.35C0.06,-0.106 0.24,0.016 0.421,0.016ZM0.421,-0.595C0.542,-0.595 0.664,-0.514 0.664,-0.35C0.664,-0.186 0.542,-0.105 0.421,-0.105C0.299,-0.105 0.178,-0.186 0.178,-0.35C0.178,-0.514 0.299,-0.595 0.421,-0.595Z" style="fill:rgb(0,39,71);fill-rule:nonzero;"/>
                </g>
                <g transform="matrix(198.239,0,0,198.239,2148.25,964)">
                    <path d="M0.066,-0L0.184,-0L0.245,-0.4L0.456,-0L0.496,-0L0.706,-0.4L0.768,-0L0.886,-0L0.781,-0.7L0.741,-0.7L0.476,-0.197L0.211,-0.7L0.171,-0.7L0.066,-0Z" style="fill:rgb(0,39,71);fill-rule:nonzero;"/>
                </g>
                <g transform="matrix(198.239,0,0,198.239,2384.95,964)">
                    <path d="M0.056,-0.093C0.12,-0.008 0.226,0.029 0.329,0.029C0.449,0.029 0.583,-0.035 0.583,-0.171C0.583,-0.416 0.194,-0.4 0.194,-0.52C0.194,-0.589 0.252,-0.611 0.312,-0.611C0.377,-0.611 0.437,-0.584 0.483,-0.538L0.562,-0.626C0.497,-0.69 0.407,-0.729 0.316,-0.729C0.19,-0.729 0.076,-0.661 0.076,-0.524C0.076,-0.295 0.465,-0.309 0.465,-0.175C0.465,-0.109 0.386,-0.089 0.333,-0.089C0.264,-0.089 0.192,-0.107 0.149,-0.166L0.056,-0.093Z" style="fill:rgb(0,39,71);fill-rule:nonzero;"/>
                </g>
                <g transform="matrix(198.239,0,0,198.239,2511.62,964)">
                    <path d="M0.196,-0L0.196,-0.247L0.307,-0.247C0.465,-0.247 0.544,-0.36 0.544,-0.473C0.544,-0.587 0.465,-0.7 0.307,-0.7L0.076,-0.7L0.076,-0L0.196,-0ZM0.307,-0.587C0.458,-0.587 0.459,-0.36 0.307,-0.36L0.196,-0.36L0.196,-0.587L0.307,-0.587Z" style="fill:rgb(0,39,71);fill-rule:nonzero;"/>
                </g>
                <g transform="matrix(198.239,0,0,198.239,2618.12,964)">
                    <path d="M0.421,0.016C0.601,0.016 0.781,-0.106 0.781,-0.35C0.781,-0.594 0.601,-0.716 0.421,-0.716C0.24,-0.716 0.06,-0.594 0.06,-0.35C0.06,-0.106 0.24,0.016 0.421,0.016ZM0.421,-0.595C0.542,-0.595 0.664,-0.514 0.664,-0.35C0.664,-0.186 0.542,-0.105 0.421,-0.105C0.299,-0.105 0.178,-0.186 0.178,-0.35C0.178,-0.514 0.299,-0.595 0.421,-0.595Z" style="fill:rgb(0,39,71);fill-rule:nonzero;"/>
                </g>
                <g transform="matrix(198.239,0,0,198.239,2784.84,964)">
                    <path d="M0.196,-0L0.196,-0.279L0.272,-0.279L0.461,-0L0.604,-0L0.401,-0.297C0.608,-0.378 0.573,-0.7 0.297,-0.7L0.076,-0.7L0.076,-0L0.196,-0ZM0.297,-0.587C0.448,-0.587 0.449,-0.392 0.297,-0.392L0.196,-0.392L0.196,-0.587L0.297,-0.587Z" style="fill:rgb(0,39,71);fill-rule:nonzero;"/>
                </g>
                <g transform="matrix(198.239,0,0,198.239,2911.71,964)">
                    <path d="M0.076,-0.7L0.076,-0L0.529,-0L0.529,-0.112L0.196,-0.112L0.196,-0.294L0.457,-0.294L0.457,-0.406L0.196,-0.406L0.196,-0.588L0.529,-0.588L0.529,-0.7L0.076,-0.7Z" style="fill:rgb(0,39,71);fill-rule:nonzero;"/>
                </g>
                <g transform="matrix(198.239,0,0,198.239,3075.65,964)">
                    <path d="M0.06,-0.35C0.06,-0.168 0.18,0.015 0.421,0.015C0.513,0.015 0.602,-0.022 0.66,-0.069L0.66,-0.382L0.375,-0.382L0.375,-0.27L0.539,-0.27L0.539,-0.136C0.515,-0.119 0.478,-0.104 0.422,-0.104C0.107,-0.104 0.107,-0.596 0.422,-0.596C0.481,-0.596 0.531,-0.572 0.56,-0.546L0.63,-0.644C0.57,-0.689 0.495,-0.715 0.421,-0.715C0.18,-0.715 0.06,-0.533 0.06,-0.35Z" style="fill:rgb(0,39,71);fill-rule:nonzero;"/>
                </g>
                <g transform="matrix(198.239,0,0,198.239,3219.58,964)">
                    <path d="M0.076,-0.7L0.076,-0L0.529,-0L0.529,-0.112L0.196,-0.112L0.196,-0.294L0.457,-0.294L0.457,-0.406L0.196,-0.406L0.196,-0.588L0.529,-0.588L0.529,-0.7L0.076,-0.7Z" style="fill:rgb(0,39,71);fill-rule:nonzero;"/>
                </g>
                <g transform="matrix(198.239,0,0,198.239,3335.55,964)">
                    <path d="M0.076,-0.7L0.076,-0L0.196,-0L0.196,-0.442L0.607,-0L0.647,-0L0.647,-0.7L0.527,-0.7L0.527,-0.259L0.117,-0.7L0.076,-0.7Z" style="fill:rgb(0,39,71);fill-rule:nonzero;"/>
                </g>
                <g transform="matrix(198.239,0,0,198.239,3478.87,964)">
                    <path d="M0.076,-0.7L0.076,-0L0.529,-0L0.529,-0.112L0.196,-0.112L0.196,-0.294L0.457,-0.294L0.457,-0.406L0.196,-0.406L0.196,-0.588L0.529,-0.588L0.529,-0.7L0.076,-0.7Z" style="fill:rgb(0,39,71);fill-rule:nonzero;"/>
                </g>
                <g transform="matrix(198.239,0,0,198.239,3594.84,964)">
                    <path d="M0.263,-0.588L0.263,-0L0.383,-0L0.383,-0.588L0.612,-0.588L0.612,-0.7L0.036,-0.7L0.036,-0.588L0.263,-0.588Z" style="fill:rgb(0,39,71);fill-rule:nonzero;"/>
                </g>
                <g transform="matrix(198.239,0,0,198.239,3723.3,964)">
                    <rect x="0.076" y="-0.7" width="0.12" height="0.7" style="fill:rgb(0,39,71);fill-rule:nonzero;"/>
                </g>
                <g transform="matrix(198.239,0,0,198.239,3777.22,964)">
                    <path d="M0.421,0.015C0.513,0.015 0.573,-0.009 0.63,-0.056L0.56,-0.152C0.538,-0.132 0.497,-0.104 0.422,-0.104C0.107,-0.104 0.107,-0.596 0.422,-0.596C0.481,-0.596 0.531,-0.572 0.56,-0.546L0.63,-0.644C0.57,-0.689 0.495,-0.715 0.421,-0.715C-0.06,-0.715 -0.06,0.015 0.421,0.015Z" style="fill:rgb(0,39,71);fill-rule:nonzero;"/>
                </g>
                <g transform="matrix(198.239,0,0,198.239,3915.19,964)">
                    <path d="M0.056,-0.093C0.12,-0.008 0.226,0.029 0.329,0.029C0.449,0.029 0.583,-0.035 0.583,-0.171C0.583,-0.416 0.194,-0.4 0.194,-0.52C0.194,-0.589 0.252,-0.611 0.312,-0.611C0.377,-0.611 0.437,-0.584 0.483,-0.538L0.562,-0.626C0.497,-0.69 0.407,-0.729 0.316,-0.729C0.19,-0.729 0.076,-0.661 0.076,-0.524C0.076,-0.295 0.465,-0.309 0.465,-0.175C0.465,-0.109 0.386,-0.089 0.333,-0.089C0.264,-0.089 0.192,-0.107 0.149,-0.166L0.056,-0.093Z" style="fill:rgb(0,39,71);fill-rule:nonzero;"/>
                </g>
            </g>
        </g>
    </g>
</svg>
