<?xml version="1.0" encoding="UTF-8" standalone="no"?>
<!DOCTYPE svg PUBLIC "-//W3C//DTD SVG 1.1//EN" "http://www.w3.org/Graphics/SVG/1.1/DTD/svg11.dtd">
<svg width="100%" height="100%" viewBox="0 0 213 38" version="1.1" xmlns="http://www.w3.org/2000/svg" xmlns:xlink="http://www.w3.org/1999/xlink" xml:space="preserve" xmlns:serif="http://www.serif.com/" style="fill-rule:evenodd;clip-rule:evenodd;stroke-linejoin:round;stroke-miterlimit:2;">
    <g id="sitelogo" transform="matrix(1.00073,0,0,1.00354,0,0)">
        <rect x="0" y="0" width="212.845" height="37.866" style="fill:none;"/>
        <g transform="matrix(33.5999,0,0,32.7382,-1.88361,23.8648)">
            <path d="M0.056,-0.093C0.12,-0.008 0.226,0.029 0.329,0.029C0.449,0.029 0.583,-0.035 0.583,-0.171C0.583,-0.416 0.194,-0.4 0.194,-0.52C0.194,-0.589 0.252,-0.611 0.312,-0.611C0.377,-0.611 0.437,-0.584 0.483,-0.538L0.562,-0.626C0.497,-0.69 0.407,-0.729 0.316,-0.729C0.19,-0.729 0.076,-0.661 0.076,-0.524C0.076,-0.295 0.465,-0.309 0.465,-0.175C0.465,-0.109 0.386,-0.089 0.333,-0.089C0.264,-0.089 0.192,-0.107 0.149,-0.166L0.056,-0.093Z" style="fill:rgb(0,39,71);fill-rule:nonzero;"/>
        </g>
        <g transform="matrix(33.5999,0,0,32.7382,19.5866,23.8648)">
            <path d="M0.196,-0L0.196,-0.247L0.307,-0.247C0.465,-0.247 0.544,-0.36 0.544,-0.473C0.544,-0.587 0.465,-0.7 0.307,-0.7L0.076,-0.7L0.076,-0L0.196,-0ZM0.307,-0.587C0.458,-0.587 0.459,-0.36 0.307,-0.36L0.196,-0.36L0.196,-0.587L0.307,-0.587Z" style="fill:rgb(0,39,71);fill-rule:nonzero;"/>
        </g>
        <g transform="matrix(33.5999,0,0,32.7382,37.637,23.8648)">
            <path d="M0.421,0.016C0.601,0.016 0.781,-0.106 0.781,-0.35C0.781,-0.594 0.601,-0.716 0.421,-0.716C0.24,-0.716 0.06,-0.594 0.06,-0.35C0.06,-0.106 0.24,0.016 0.421,0.016ZM0.421,-0.595C0.542,-0.595 0.664,-0.514 0.664,-0.35C0.664,-0.186 0.542,-0.105 0.421,-0.105C0.299,-0.105 0.178,-0.186 0.178,-0.35C0.178,-0.514 0.299,-0.595 0.421,-0.595Z" style="fill:rgb(0,39,71);fill-rule:nonzero;"/>
        </g>
        <g transform="matrix(33.5999,0,0,32.7382,65.8945,23.8648)">
            <path d="M0.196,-0L0.196,-0.279L0.272,-0.279L0.461,-0L0.604,-0L0.401,-0.297C0.608,-0.378 0.573,-0.7 0.297,-0.7L0.076,-0.7L0.076,-0L0.196,-0ZM0.297,-0.587C0.448,-0.587 0.449,-0.392 0.297,-0.392L0.196,-0.392L0.196,-0.587L0.297,-0.587Z" style="fill:rgb(0,39,71);fill-rule:nonzero;"/>
        </g>
        <g transform="matrix(33.5999,0,0,32.7382,87.3983,23.8648)">
            <path d="M0.076,-0.7L0.076,-0L0.529,-0L0.529,-0.112L0.196,-0.112L0.196,-0.294L0.457,-0.294L0.457,-0.406L0.196,-0.406L0.196,-0.588L0.529,-0.588L0.529,-0.7L0.076,-0.7Z" style="fill:rgb(0,39,71);fill-rule:nonzero;"/>
        </g>
        <g transform="matrix(33.5999,0,0,32.7382,115.186,23.8648)">
            <path d="M0.076,-0.7L0.076,-0L0.196,-0L0.196,-0.442L0.607,-0L0.647,-0L0.647,-0.7L0.527,-0.7L0.527,-0.259L0.117,-0.7L0.076,-0.7Z" style="fill:rgb(0,39,71);fill-rule:nonzero;"/>
        </g>
        <g transform="matrix(33.5999,0,0,32.7382,139.478,23.8648)">
            <rect x="0.076" y="-0.7" width="0.12" height="0.7" style="fill:rgb(0,39,71);"/>
        </g>
        <g transform="matrix(33.5999,0,0,32.7382,148.617,23.8648)">
            <path d="M0.076,-0.7L0.076,-0L0.196,-0L0.196,-0.442L0.607,-0L0.647,-0L0.647,-0.7L0.527,-0.7L0.527,-0.259L0.117,-0.7L0.076,-0.7Z" style="fill:rgb(0,39,71);fill-rule:nonzero;"/>
        </g>
        <g transform="matrix(33.5999,0,0,32.7382,172.91,23.8648)">
            <path d="M0.036,-0.044C0.075,-0.004 0.145,0.014 0.187,0.014C0.305,0.014 0.41,-0.053 0.41,-0.251L0.41,-0.7L0.29,-0.7L0.29,-0.255C0.29,-0.158 0.238,-0.104 0.174,-0.104C0.139,-0.104 0.1,-0.121 0.065,-0.155L0.036,-0.044Z" style="fill:rgb(0,39,71);fill-rule:nonzero;"/>
        </g>
        <g transform="matrix(33.5999,0,0,32.7382,188.937,23.8648)">
            <path d="M0.161,-0L0.206,-0.098L0.538,-0.098L0.583,-0L0.707,-0L0.382,-0.71L0.362,-0.71L0.036,-0L0.161,-0ZM0.257,-0.21L0.372,-0.458L0.486,-0.21L0.257,-0.21Z" style="fill:rgb(0,39,71);fill-rule:nonzero;"/>
        </g>
        <g transform="matrix(0.155631,-0.636798,0.638584,0.155196,-12.5801,128.689)">
            <circle cx="189.5" cy="49.5" r="3.5" style="fill:rgb(0,39,71);"/>
        </g>
        <g transform="matrix(0.0889319,-0.363885,0.364905,0.0886832,16.2762,73.4927)">
            <circle cx="189.5" cy="49.5" r="3.5" style="fill:rgb(0,39,71);"/>
        </g>
        <g transform="matrix(0.200097,-0.81874,0.821036,0.199537,-22.5626,158.067)">
            <circle cx="189.5" cy="49.5" r="3.5" style="fill:rgb(0,39,71);"/>
        </g>
        <g transform="matrix(0.817113,0,0,0.814825,-23.7653,8.07795)">
            <text x="28px" y="34px" style="font-family:'Lato-Bold', 'Lato', sans-serif;font-weight:700;font-size:13.96px;fill:rgb(0,39,71);">PREMIUM RESOUR<tspan x="151.829px " y="34px ">C</tspan>ES FOR MY<tspan x="231.767px " y="34px ">C</tspan>OL<tspan x="258.948px " y="34px ">O</tspan>GY</text>
        </g>
    </g>
</svg>
